G04 ================== begin FILE IDENTIFICATION RECORD ==================*
G04 Layout Name:  PCB_nou.brd*
G04 Film Name:    SPTOP*
G04 File Format:  Gerber RS274X*
G04 File Origin:  Cadence Allegro 17.2-S025*
G04 Origin Date:  Sat Jan 20 20:33:26 2024*
G04 *
G04 Layer:  PIN/PASTEMASK_TOP*
G04 Layer:  PACKAGE GEOMETRY/PASTEMASK_TOP*
G04 *
G04 Offset:    (0.00 0.00)*
G04 Mirror:    No*
G04 Mode:      Positive*
G04 Rotation:  0*
G04 FullContactRelief:  No*
G04 UndefLineWidth:     10.00*
G04 ================== end FILE IDENTIFICATION RECORD ====================*
%FSLAX25Y25*MOIN*%
%IR0*IPPOS*OFA0.00000B0.00000*MIA0B0*SFA1.00000B1.00000*%
%ADD11R,.12X.076*%
%ADD14R,.076X.12*%
%ADD10C,.04*%
%ADD18R,.046X.046*%
%ADD16R,.06496X.13583*%
%ADD15R,.03X.032*%
%ADD13R,.03X.05*%
%ADD12R,.05X.03*%
%ADD17R,.045X.032*%
%ADD19R,.05X.077*%
%LPD*%
G75*
G54D10*
X19200Y19100D03*
X139200Y142800D03*
G54D11*
X14100Y37700D03*
Y61300D03*
X141900Y90900D03*
Y114500D03*
G54D12*
X13700Y76563D03*
Y84437D03*
X13000Y127337D03*
Y119463D03*
X29600Y22463D03*
X30000Y45363D03*
Y53237D03*
X29600Y30337D03*
X33000Y65063D03*
Y72937D03*
X50300Y126437D03*
Y118563D03*
X28000Y126937D03*
Y119063D03*
X107600Y75563D03*
Y83437D03*
X84900Y112463D03*
Y120337D03*
X94500Y130763D03*
Y138637D03*
X107800Y138937D03*
Y131063D03*
X128200Y134137D03*
Y126263D03*
G54D13*
X16063Y107400D03*
X43937Y11400D03*
X36063D03*
X52937Y76100D03*
X45063D03*
X23937Y107400D03*
X67837Y10700D03*
X59963D03*
X74037Y76400D03*
X66163D03*
X73637Y134300D03*
X65763D03*
X93137Y76400D03*
X85263D03*
X111663Y113600D03*
X129037Y64800D03*
X121163D03*
X119537Y113600D03*
G54D14*
X22700Y143400D03*
X46300D03*
X114300Y14700D03*
X137900D03*
G54D15*
X41800Y107443D03*
Y100357D03*
X89100Y10057D03*
Y17143D03*
X117300Y102143D03*
Y95057D03*
G54D16*
X62000Y33495D03*
Y57905D03*
X97000Y34095D03*
Y58505D03*
G54D17*
X65500Y98200D03*
Y90500D03*
X73500Y94400D03*
X90500Y99300D03*
Y91600D03*
X98500Y95500D03*
G54D18*
X143000Y37645D03*
Y46700D03*
G54D19*
X120756Y42172D03*
M02*
