G04 ================== begin FILE IDENTIFICATION RECORD ==================*
G04 Layout Name:  PCB_nou.brd*
G04 Film Name:    TOP*
G04 File Format:  Gerber RS274X*
G04 File Origin:  Cadence Allegro 17.2-S025*
G04 Origin Date:  Sat Jan 20 20:33:26 2024*
G04 *
G04 Layer:  ETCH/TOP*
G04 Layer:  PIN/TOP*
G04 Layer:  VIA CLASS/TOP*
G04 *
G04 Offset:    (0.00 0.00)*
G04 Mirror:    No*
G04 Mode:      Positive*
G04 Rotation:  0*
G04 FullContactRelief:  No*
G04 UndefLineWidth:     10.00*
G04 ================== end FILE IDENTIFICATION RECORD ====================*
%FSLAX25Y25*MOIN*%
%IR0*IPPOS*OFA0.00000B0.00000*MIA0B0*SFA1.00000B1.00000*%
%ADD11R,.12X.076*%
%ADD14R,.076X.12*%
%ADD10C,.04*%
%ADD15C,.026*%
%ADD20R,.05118X.05118*%
%ADD17C,.03937*%
%ADD18R,.06496X.13583*%
%ADD19R,.05X.036*%
%ADD16R,.0374X.04331*%
%ADD13R,.0374X.05709*%
%ADD12R,.05709X.0374*%
%ADD21R,.05118X.07874*%
%ADD22C,.02*%
%ADD23C,.016*%
%ADD24C,.07878*%
G75*
%LPD*%
G75*
G36*
G01X5400Y5200D02*
Y155199D01*
X154700D01*
Y5200D01*
X5400D01*
G37*
%LPC*%
G75*
G36*
G01X46933Y71844D02*
X43193D01*
G02X41792Y73246I0J1401D01*
G01Y78954D01*
G02X42728Y80277I1401J1D01*
G01X42862Y80324D01*
Y81167D01*
X43962Y82267D01*
Y84875D01*
X59488Y100402D01*
X59878D01*
Y100708D01*
X55988Y104598D01*
X53788D01*
X53145Y105242D01*
X45072D01*
Y98192D01*
G02X44135Y96869I-1402J0D01*
G01X44002Y96822D01*
Y87388D01*
X38712Y82098D01*
X31782D01*
X31582Y81898D01*
X29952D01*
G02X24848I-2552J2202D01*
G01X23218D01*
X22881Y82236D01*
X17924D01*
X17877Y82102D01*
G02X16554Y81166I-1322J465D01*
G01X10846D01*
G02X9444Y82567I-1J1401D01*
G01Y86307D01*
G02X10846Y87708I1401J0D01*
G01X11298D01*
Y96412D01*
X14488Y99602D01*
X21188D01*
X21736Y100149D01*
Y103176D01*
X21602Y103223D01*
G02X20666Y104546I465J1322D01*
G01Y110254D01*
G02X22067Y111656I1401J1D01*
G01X25807D01*
G02X27208Y110254I0J-1401D01*
G01Y109602D01*
X28019D01*
X28419Y109202D01*
X32788D01*
X33198Y109612D01*
Y123888D01*
X32675Y124411D01*
G03X32051Y124337I-283J-282D01*
G02X30854Y123666I-1196J730D01*
G01X25146D01*
G02X23823Y124602I-1J1401D01*
G01X23776Y124736D01*
X22933D01*
X22533Y125136D01*
X17224D01*
X17177Y125002D01*
G02X15854Y124066I-1322J465D01*
G01X10146D01*
G02X8744Y125467I-1J1401D01*
G01Y129207D01*
G02X10146Y130608I1401J0D01*
G01X15854D01*
G02X17177Y129672I1J-1401D01*
G01X17224Y129538D01*
X23950D01*
G02X25146Y130208I1195J-731D01*
G01X30854D01*
G02X32177Y129272I1J-1401D01*
G01X32224Y129138D01*
X34175D01*
X37602Y125712D01*
Y107788D01*
X34612Y104798D01*
X27208D01*
Y104546D01*
G02X26272Y103223I-1401J-1D01*
G01X26138Y103176D01*
Y98325D01*
X23012Y95198D01*
X16312D01*
X15702Y94588D01*
Y88719D01*
X15902Y88519D01*
Y87708D01*
X16554D01*
G02X17877Y86772I1J-1401D01*
G01X17924Y86638D01*
X24705D01*
X24936Y86407D01*
X25077Y86542D01*
G02X29764Y86502I2323J-2442D01*
G01X36888D01*
X39598Y89212D01*
Y96822D01*
X39465Y96869D01*
G02X38528Y98192I465J1323D01*
G01Y109608D01*
G02X39465Y110931I1402J0D01*
G01X39598Y110978D01*
Y117418D01*
X39198Y117818D01*
Y119448D01*
G02X43842Y119677I2202J2552D01*
G01X43707Y119536D01*
X44002Y119242D01*
Y110978D01*
X44135Y110931D01*
G02X45057Y109815I-465J-1323D01*
G01X45082Y109644D01*
X54969D01*
X55612Y109002D01*
X57812D01*
X64282Y102532D01*
Y101832D01*
X64712Y101402D01*
X68000D01*
G02X69402Y100000I0J-1402D01*
G01Y97545D01*
G03X70068Y97246I400J0D01*
G02X71000Y97602I933J-1045D01*
G01X73488D01*
X74638Y98751D01*
X74634Y98840D01*
G02X80552Y101202I3366J160D01*
G01X85488D01*
X85788Y101502D01*
X86650D01*
X86701Y101626D01*
G02X88000Y102502I1299J-525D01*
G01X88298D01*
Y108797D01*
G03X87867Y109196I-400J0D01*
G02X87754Y109192I-106J1397D01*
G01X82046D01*
G02X80644Y110593I-1J1401D01*
G01Y114333D01*
G02X82046Y115734I1401J0D01*
G01X87754D01*
G02X89077Y114798I1J-1401D01*
G01X89124Y114664D01*
X91249D01*
X92702Y113212D01*
Y102502D01*
X93000D01*
G02X94402Y101100I0J-1402D01*
G01Y98645D01*
G03X95068Y98346I400J0D01*
G02X96000Y98702I933J-1045D01*
G01X96298D01*
Y111133D01*
G02X100702I2202J1567D01*
G01Y98702D01*
X101000D01*
G02X102299Y97826I0J-1401D01*
G01X102350Y97702D01*
X103288D01*
X109938Y104352D01*
X114018D01*
X114044Y104521D01*
G02X115430Y105710I1386J-213D01*
G01X119170D01*
G02X120572Y104308I0J-1402D01*
G01Y92892D01*
G02X119635Y91569I-1402J0D01*
G01X119502Y91522D01*
Y87067D01*
G02X115098I-2202J-1567D01*
G01Y91522D01*
X114965Y91569D01*
G02X114028Y92892I465J1323D01*
G01Y99942D01*
X113218D01*
X113211Y99948D01*
X111762D01*
X105112Y93298D01*
X102350D01*
X102299Y93174D01*
G02X101000Y92298I-1299J525D01*
G01X96000D01*
G02X95068Y92654I1J1401D01*
G03X94402Y92355I-266J-299D01*
G01Y89800D01*
G02X93000Y88398I-1402J0D01*
G01X92702D01*
Y87012D01*
X94075Y85638D01*
X103376D01*
X103423Y85772D01*
G02X104746Y86708I1322J-465D01*
G01X110454D01*
G02X111856Y85307I1J-1401D01*
G01Y81567D01*
G02X110454Y80166I-1401J0D01*
G01X104746D01*
G02X103423Y81102I-1J1401D01*
G01X103376Y81236D01*
X92251D01*
X88298Y85188D01*
Y88398D01*
X88000D01*
G02X86598Y89800I0J1402D01*
G01Y93400D01*
G02X88000Y94802I1402J0D01*
G01X93000D01*
G02X93932Y94446I-1J-1401D01*
G03X94598Y94745I266J299D01*
G01Y96155D01*
G03X93932Y96454I-400J0D01*
G02X93000Y96098I-933J1045D01*
G01X88000D01*
G02X86787Y96798I0J1401D01*
G01X80552D01*
G02X77840Y95634I-2551J2202D01*
G01X77751Y95638D01*
X77402Y95288D01*
Y92600D01*
G02X76000Y91198I-1402J0D01*
G01X71000D01*
G02X70068Y91554I1J1401D01*
G03X69402Y91255I-266J-299D01*
G01Y88700D01*
G02X68000Y87298I-1402J0D01*
G01X63000D01*
G02X62081Y87642I1J1402D01*
G03X61536Y87623I-262J-302D01*
G01X58665Y84752D01*
X58654Y84692D01*
G02X55492Y87854I-2654J508D01*
G01X55552Y87865D01*
X60388Y92702D01*
X61650D01*
X61701Y92826D01*
G02X63000Y93702I1299J-525D01*
G01X68000D01*
G02X68932Y93346I-1J-1401D01*
G03X69598Y93645I266J299D01*
G01Y95055D01*
G03X68932Y95354I-400J0D01*
G02X68000Y94998I-933J1045D01*
G01X63000D01*
G02X61701Y95874I0J1401D01*
G01X61650Y95998D01*
X61312D01*
X48364Y83051D01*
Y80443D01*
X47903Y79982D01*
X48018Y79842D01*
G02X48334Y78954I-1085J-886D01*
G01Y73246D01*
G02X46933Y71844I-1401J-1D01*
G37*
G36*
G01X63234Y7846D02*
G02X61833Y6444I-1401J-1D01*
G01X58093D01*
G02X56692Y7846I0J1401D01*
G01Y8498D01*
X55881D01*
X55181Y9198D01*
X47208D01*
Y8546D01*
G02X45807Y7144I-1401J-1D01*
G01X42067D01*
G02X40666Y8546I0J1401D01*
G01Y14254D01*
G02X42067Y15656I1401J1D01*
G01X45807D01*
G02X47208Y14254I0J-1401D01*
G01Y13602D01*
X56682D01*
X56708Y13771D01*
G02X58093Y14956I1385J-217D01*
G01X61833D01*
G02X63234Y13554I0J-1401D01*
G01Y7846D01*
G37*
G36*
G01X71622Y14035D02*
X77388Y19802D01*
X85912D01*
X85966Y19915D01*
G02X87230Y20710I1264J-607D01*
G01X90970D01*
G02X92257Y19865I0J-1403D01*
G01X92309Y19744D01*
X98069D01*
X98312Y19502D01*
X98433D01*
G02Y15098I1567J-2202D01*
G01X96488D01*
X96245Y15342D01*
X93582D01*
X93182Y14942D01*
X92372D01*
Y12658D01*
X98055D01*
X98112Y12602D01*
X98233D01*
G02Y8198I1567J-2202D01*
G01X96288D01*
X96231Y8256D01*
X93582D01*
X93182Y7856D01*
X92382D01*
X92357Y7685D01*
G02X90970Y6490I-1387J207D01*
G01X87230D01*
G02X85828Y7892I0J1402D01*
G01Y14942D01*
X85018D01*
X84561Y15398D01*
X79212D01*
X72312Y8498D01*
X71108D01*
Y7846D01*
G02X69707Y6444I-1401J-1D01*
G01X65967D01*
G02X64566Y7846I0J1401D01*
G01Y13554D01*
G02X65967Y14956I1401J1D01*
G01X69707D01*
G02X70976Y14148I0J-1401D01*
G03X71622Y14035I363J170D01*
G37*
G36*
G01X33856Y22305D02*
X35576Y20585D01*
Y19600D01*
X38264Y16912D01*
Y15624D01*
X38398Y15577D01*
G02X39334Y14254I-465J-1322D01*
G01Y8546D01*
G02X37933Y7144I-1401J-1D01*
G01X34193D01*
G02X32792Y8546I0J1401D01*
G01Y14254D01*
G02X33178Y15220I1401J0D01*
G03X33171Y15779I-290J276D01*
G01X31174Y17776D01*
Y18761D01*
X30743Y19192D01*
X26746D01*
G02X25344Y20593I-1J1401D01*
G01Y24333D01*
G02X26746Y25734I1401J0D01*
G01X32454D01*
G02X33856Y24333I1J-1401D01*
G01Y22305D01*
G37*
G36*
G01X116388Y22102D02*
X118554Y24268D01*
Y36834D01*
X118197D01*
G02X116796Y38235I0J1401D01*
G01Y46109D01*
G02X118197Y47510I1401J0D01*
G01X123315D01*
G02X124716Y46109I0J-1401D01*
G01Y38235D01*
G02X123315Y36834I-1401J0D01*
G01X122958D01*
Y22444D01*
X119502Y18988D01*
Y8700D01*
G02X118100Y7298I-1402J0D01*
G01X110500D01*
G02X109098Y8700I0J1402D01*
G01Y20700D01*
G02X110500Y22102I1402J0D01*
G01X116388D01*
G37*
G36*
G01X33856Y28467D02*
G02X32454Y27066I-1401J0D01*
G01X26746D01*
G02X25344Y28467I-1J1401D01*
G01Y32207D01*
G02X26746Y33608I1401J0D01*
G01X27398D01*
Y34419D01*
X27798Y34819D01*
Y42092D01*
X27146D01*
G02X25744Y43493I-1J1401D01*
G01Y47233D01*
G02X27146Y48634I1401J0D01*
G01X32854D01*
G02X34256Y47233I1J-1401D01*
G01Y43493D01*
G02X32854Y42092I-1401J0D01*
G01X32202D01*
Y33608D01*
X32454D01*
G02X33856Y32207I1J-1401D01*
G01Y28467D01*
G37*
G36*
G01X123202Y70030D02*
X123364Y69867D01*
Y69024D01*
X123498Y68977D01*
G02X124434Y67654I-465J-1322D01*
G01Y61946D01*
G02X123033Y60544I-1401J-1D01*
G01X119293D01*
G02X117892Y61946I0J1401D01*
G01Y67654D01*
G02X118685Y68917I1401J1D01*
G01X118798Y68972D01*
Y71088D01*
X116525Y73362D01*
X111824D01*
X111777Y73228D01*
G02X110454Y72292I-1322J465D01*
G01X104746D01*
G02X103492Y73066I-1J1401D01*
G01X98120D01*
X96988Y74198D01*
X96408D01*
Y73546D01*
G02X95472Y72223I-1401J-1D01*
G01X95338Y72176D01*
Y71372D01*
X99202Y67509D01*
Y66698D01*
X100248D01*
G02X101650Y65296I0J-1402D01*
G01Y51714D01*
G02X100248Y50312I-1402J0D01*
G01X93752D01*
G02X92350Y51714I0J1402D01*
G01Y55704D01*
X66650D01*
Y51114D01*
G02X65248Y49712I-1402J0D01*
G01X58752D01*
G02X57350Y51114I0J1402D01*
G01Y64696D01*
G02X58752Y66098I1402J0D01*
G01X65248D01*
G02X66650Y64696I0J-1402D01*
G01Y60106D01*
X90940D01*
X91540Y60706D01*
X92350D01*
Y65296D01*
G02X93159Y66566I1402J0D01*
G03X93272Y67211I-170J362D01*
G01X90936Y69548D01*
Y72176D01*
X90802Y72223D01*
G02X89866Y73546I465J1322D01*
G01Y79254D01*
G02X91267Y80656I1401J1D01*
G01X95007D01*
G02X96408Y79254I0J-1401D01*
G01Y78602D01*
X98812D01*
X99944Y77470D01*
X102238D01*
X102533Y77764D01*
X103376D01*
X103423Y77898D01*
G02X104746Y78834I1322J-465D01*
G01X110454D01*
G02X111777Y77898I1J-1401D01*
G01X111824Y77764D01*
X118349D01*
X123202Y72912D01*
Y70030D01*
G37*
G36*
G01X35884Y60050D02*
G03X35202Y59767I-282J-283D01*
G01Y58495D01*
X33585Y56879D01*
G03X33643Y56266I283J-282D01*
G02X34256Y55107I-789J-1159D01*
G01Y51367D01*
G02X32854Y49966I-1401J0D01*
G01X27146D01*
G02X25744Y51367I-1J1401D01*
G01Y55107D01*
G02X27146Y56508I1401J0D01*
G01X27798D01*
Y57319D01*
X30798Y60319D01*
Y61792D01*
X30146D01*
G02X28744Y63193I-1J1401D01*
G01Y66933D01*
G02X30146Y68334I1401J0D01*
G01X35854D01*
G02X37256Y66933I1J-1401D01*
G01Y64905D01*
X39597Y62564D01*
X39767D01*
X39830Y62502D01*
X41333D01*
G02Y58098I1567J-2202D01*
G01X38006D01*
X37943Y58162D01*
X37773D01*
X35884Y60050D01*
G37*
G36*
G01X21502Y57500D02*
G02X20100Y56098I-1402J0D01*
G01X8100D01*
G02X6698Y57500I0J1402D01*
G01Y65100D01*
G02X8100Y66502I1402J0D01*
G01X11898D01*
Y67388D01*
X11498Y67788D01*
Y73292D01*
X10846D01*
G02X9444Y74693I-1J1401D01*
G01Y78433D01*
G02X10846Y79834I1401J0D01*
G01X16554D01*
G02X17956Y78433I1J-1401D01*
G01Y74693D01*
G02X16554Y73292I-1401J0D01*
G01X15902D01*
Y69612D01*
X16302Y69212D01*
Y66502D01*
X20100D01*
G02X21502Y65100I0J-1402D01*
G01Y57500D01*
G37*
G36*
G01X56208Y73246D02*
G02X54807Y71844I-1401J-1D01*
G01X51067D01*
G02X49666Y73246I0J1401D01*
G01Y78954D01*
G02X51067Y80356I1401J1D01*
G01X54807D01*
G02X56208Y78954I0J-1401D01*
G01Y78302D01*
X61781D01*
X62081Y78602D01*
X62892D01*
Y79254D01*
G02X64293Y80656I1401J1D01*
G01X68033D01*
G02X69434Y79254I0J-1401D01*
G01Y73546D01*
G02X68033Y72144I-1401J-1D01*
G01X64293D01*
G02X62892Y73546I0J1401D01*
G01Y73898D01*
X56208D01*
Y73246D01*
G37*
G36*
G01X77308Y73546D02*
G02X75907Y72144I-1401J-1D01*
G01X72167D01*
G02X70766Y73546I0J1401D01*
G01Y79254D01*
G02X72167Y80656I1401J1D01*
G01X75907D01*
G02X77308Y79254I0J-1401D01*
G01Y78602D01*
X81992D01*
Y79254D01*
G02X83393Y80656I1401J1D01*
G01X87133D01*
G02X88534Y79254I0J-1401D01*
G01Y73546D01*
G02X87133Y72144I-1401J-1D01*
G01X83393D01*
G02X81992Y73546I0J1401D01*
G01Y74198D01*
X77308D01*
Y73546D01*
G37*
G36*
G01X108823Y117482D02*
X106570Y119735D01*
X106510Y119746D01*
G02X109672Y122908I508J2654D01*
G01X109683Y122848D01*
X113864Y118667D01*
Y117824D01*
X113998Y117777D01*
G02X114934Y116454I-465J-1322D01*
G01Y110746D01*
G02X113533Y109344I-1401J-1D01*
G01X109793D01*
G02X108392Y110746I0J1401D01*
G01Y116454D01*
G02X108708Y117342I1401J2D01*
G01X108823Y117482D01*
G37*
G36*
G01X122049Y124062D02*
X121738Y123751D01*
Y117824D01*
X121872Y117777D01*
G02X122808Y116454I-465J-1322D01*
G01Y110746D01*
G02X121407Y109344I-1401J-1D01*
G01X117667D01*
G02X116266Y110746I0J1401D01*
G01Y116454D01*
G02X117202Y117777I1401J1D01*
G01X117336Y117824D01*
Y125575D01*
X120225Y128464D01*
X123976D01*
X124023Y128598D01*
G02X125346Y129534I1322J-465D01*
G01X131054D01*
G02X132456Y128133I1J-1401D01*
G01Y124393D01*
G02X131054Y122992I-1401J0D01*
G01X125346D01*
G02X124023Y123928I-1J1401D01*
G01X123976Y124062D01*
X122049D01*
G37*
G36*
G01X59112Y128602D02*
X61802Y125912D01*
Y123967D01*
G02X62078Y121324I-2202J-1566D01*
G03X62445Y120764I367J-160D01*
G01X63249D01*
X64648Y119365D01*
X64708Y119354D01*
G02X61546Y116192I-508J-2654D01*
G01X61535Y116252D01*
X61425Y116362D01*
X54524D01*
X54477Y116228D01*
G02X53154Y115292I-1322J465D01*
G01X47446D01*
G02X46044Y116693I-1J1401D01*
G01Y120433D01*
G02X47446Y121834I1401J0D01*
G01X53154D01*
G02X54477Y120898I1J-1401D01*
G01X54524Y120764D01*
X56755D01*
G03X57122Y121324I0J400D01*
G02X57188Y123618I2478J1077D01*
G03X56831Y124198I-357J180D01*
G01X54514D01*
X54465Y124070D01*
G02X53154Y123166I-1310J497D01*
G01X47446D01*
G02X46044Y124567I-1J1401D01*
G01Y128307D01*
G02X47446Y129708I1401J0D01*
G01X48098D01*
Y130519D01*
X48298Y130719D01*
Y130988D01*
X44098Y135188D01*
Y135998D01*
X42500D01*
G02X41098Y137400I0J1402D01*
G01Y149400D01*
G02X42500Y150802I1402J0D01*
G01X50100D01*
G02X51502Y149400I0J-1402D01*
G01Y137400D01*
G02X50100Y135998I-1402J0D01*
G01X49998D01*
G03X49856Y135657I0J-200D01*
G01X52702Y132812D01*
Y129708D01*
X53154D01*
G02X54477Y128772I1J-1401D01*
G01X54524Y128638D01*
X55367D01*
X55404Y128602D01*
X59112D01*
G37*
G36*
G01X68098Y130123D02*
X67964Y130076D01*
Y129749D01*
X68512Y129202D01*
X82912D01*
X87102Y125012D01*
Y123608D01*
X87754D01*
G02X89156Y122207I1J-1401D01*
G01Y118467D01*
G02X87754Y117066I-1401J0D01*
G01X82046D01*
G02X80644Y118467I-1J1401D01*
G01Y122207D01*
G02X81561Y123522I1401J0D01*
G03X81706Y124180I-138J375D01*
G01X81088Y124798D01*
X66688D01*
X63562Y127925D01*
Y130076D01*
X63428Y130123D01*
G02X62492Y131446I465J1322D01*
G01Y137154D01*
G02X63893Y138556I1401J1D01*
G01X67633D01*
G02X69034Y137154I0J-1401D01*
G01Y131446D01*
G02X68098Y130123I-1401J-1D01*
G37*
G36*
G01X98756Y128893D02*
G02X97354Y127492I-1401J0D01*
G01X91646D01*
G02X90244Y128893I-1J1401D01*
G01Y130921D01*
X89203Y131962D01*
X87933D01*
X87833Y132062D01*
X85733D01*
X85696Y132098D01*
X76908D01*
Y131446D01*
G02X75507Y130044I-1401J-1D01*
G01X71767D01*
G02X70366Y131446I0J1401D01*
G01Y137154D01*
G02X71767Y138556I1401J1D01*
G01X75507D01*
G02X76908Y137154I0J-1401D01*
G01Y136502D01*
X87520D01*
X87557Y136464D01*
X89657D01*
X89757Y136364D01*
X89844D01*
G03X90244Y136765I0J400D01*
G02Y136767I1402J1D01*
G01Y140507D01*
G02X91646Y141908I1401J0D01*
G01X97354D01*
G02X98677Y140972I1J-1401D01*
G01X98724Y140838D01*
X102433D01*
X102733Y141138D01*
X103576D01*
X103623Y141272D01*
G02X104946Y142208I1322J-465D01*
G01X110654D01*
G02X112056Y140807I1J-1401D01*
G01Y137067D01*
G02X110654Y135666I-1401J0D01*
G01X104946D01*
G02X103694Y136436I-1J1401D01*
G01X98724D01*
X98677Y136302D01*
G02X97354Y135366I-1322J465D01*
G01X92992D01*
G03X92709Y134683I0J-400D01*
G01X93357Y134034D01*
X97354D01*
G02X98756Y132633I1J-1401D01*
G01Y128893D01*
G37*
G36*
G01X111956Y128673D02*
G02X110654Y127792I-1301J520D01*
G01X104946D01*
G02X103544Y129193I-1J1401D01*
G01Y132933D01*
G02X104946Y134334I1401J0D01*
G01X110654D01*
G02X111977Y133398I1J-1401D01*
G01X112024Y133264D01*
X112867D01*
X112930Y133202D01*
X116488D01*
X119625Y136338D01*
X123976D01*
X124023Y136472D01*
G02X125346Y137408I1322J-465D01*
G01X131054D01*
G02X132456Y136007I1J-1401D01*
G01Y132267D01*
G02X131054Y130866I-1401J0D01*
G01X125346D01*
G02X124023Y131802I-1J1401D01*
G01X123976Y131936D01*
X121449D01*
X118312Y128798D01*
X112006D01*
X111956Y128673D01*
G37*
G36*
G01X7598Y33900D02*
Y41500D01*
G02X8100Y42002I502J0D01*
G01X20100D01*
G02X20602Y41500I0J-502D01*
G01Y33900D01*
G02X20100Y33398I-502J0D01*
G01X8100D01*
G02X7598Y33900I0J502D01*
G37*
G36*
G01X13692Y104546D02*
Y110254D01*
G02X14193Y110756I501J1D01*
G01X17933D01*
G02X18434Y110254I0J-501D01*
G01Y104546D01*
G02X17933Y104044I-501J-1D01*
G01X14193D01*
G02X13692Y104546I0J501D01*
G37*
G36*
G01X18398Y137400D02*
Y149400D01*
G02X18900Y149902I502J0D01*
G01X26500D01*
G02X27002Y149400I0J-502D01*
G01Y137400D01*
G02X26500Y136898I-502J0D01*
G01X18900D01*
G02X18398Y137400I0J502D01*
G37*
G36*
G01X9644Y117593D02*
Y121333D01*
G02X10146Y121834I501J0D01*
G01X15854D01*
G02X16356Y121333I1J-501D01*
G01Y117593D01*
G02X15854Y117092I-501J0D01*
G01X10146D01*
G02X9644Y117593I-1J501D01*
G37*
G36*
G01X29644Y71067D02*
Y74807D01*
G02X30146Y75308I501J0D01*
G01X35854D01*
G02X36356Y74807I1J-501D01*
G01Y71067D01*
G02X35854Y70566I-501J0D01*
G01X30146D01*
G02X29644Y71067I-1J501D01*
G37*
G36*
G01X24644Y117193D02*
Y120933D01*
G02X25146Y121434I501J0D01*
G01X30854D01*
G02X31356Y120933I1J-501D01*
G01Y117193D01*
G02X30854Y116692I-501J0D01*
G01X25146D01*
G02X24644Y117193I-1J501D01*
G37*
G36*
G01X58250Y26704D02*
Y40286D01*
G02X58752Y40788I502J0D01*
G01X65248D01*
G02X65750Y40286I0J-502D01*
G01Y26704D01*
G02X65248Y26202I-502J0D01*
G01X58752D01*
G02X58250Y26704I0J502D01*
G37*
G36*
G01X93250Y27304D02*
Y40886D01*
G02X93752Y41388I502J0D01*
G01X100248D01*
G02X100750Y40886I0J-502D01*
G01Y27304D01*
G02X100248Y26802I-502J0D01*
G01X93752D01*
G02X93250Y27304I0J502D01*
G37*
G36*
G01X133598Y8700D02*
Y20700D01*
G02X134100Y21202I502J0D01*
G01X141700D01*
G02X142202Y20700I0J-502D01*
G01Y8700D01*
G02X141700Y8198I-502J0D01*
G01X134100D01*
G02X133598Y8700I0J502D01*
G37*
G36*
G01X139940Y44141D02*
Y49259D01*
G02X140441Y49760I501J0D01*
G01X145559D01*
G02X146060Y49259I0J-501D01*
G01Y44141D01*
G02X145559Y43640I-501J0D01*
G01X140441D01*
G02X139940Y44141I0J501D01*
G37*
G36*
G01X126666Y61946D02*
Y67654D01*
G02X127167Y68156I501J1D01*
G01X130907D01*
G02X131408Y67654I0J-501D01*
G01Y61946D01*
G02X130907Y61444I-501J-1D01*
G01X127167D01*
G02X126666Y61946I0J501D01*
G37*
G36*
G01X135398Y110700D02*
Y118300D01*
G02X135900Y118802I502J0D01*
G01X147900D01*
G02X148402Y118300I0J-502D01*
G01Y110700D01*
G02X147900Y110198I-502J0D01*
G01X135900D01*
G02X135398Y110700I0J502D01*
G37*
G36*
G01X144102Y67512D02*
X152302Y59312D01*
Y27088D01*
X149880Y24666D01*
X144920D01*
X144688Y24898D01*
X144568D01*
G02X140798Y28667I-1568J2201D01*
G01Y33684D01*
X140441D01*
G02X139040Y35086I1J1402D01*
G01Y40206D01*
G02X140441Y41606I1401J-1D01*
G01X145559D01*
G02X146960Y40204I-1J-1402D01*
G01Y35084D01*
G02X145559Y33684I-1401J1D01*
G01X145202D01*
Y29302D01*
X146512D01*
X146744Y29070D01*
X147898D01*
Y57488D01*
X139698Y65688D01*
Y85698D01*
X135900D01*
G02X134498Y87100I0J1402D01*
G01Y94700D01*
G02X135900Y96102I1402J0D01*
G01X147900D01*
G02X149302Y94700I0J-1402D01*
G01Y87100D01*
G02X147900Y85698I-1402J0D01*
G01X144102D01*
Y67512D01*
G37*
G54D24*
X139200Y142800D03*
X19200Y19100D03*
%LPD*%
G75*
G54D10*
X19200Y19100D03*
X139200Y142800D03*
G54D20*
X143000Y37645D03*
Y46700D03*
G54D11*
X14100Y37700D03*
Y61300D03*
X141900Y90900D03*
Y114500D03*
G54D21*
X120756Y42172D03*
G54D12*
X13700Y76563D03*
Y84437D03*
X13000Y127337D03*
Y119463D03*
X29600Y22463D03*
X30000Y45363D03*
Y53237D03*
X29600Y30337D03*
X33000Y65063D03*
Y72937D03*
X50300Y126437D03*
Y118563D03*
X28000Y126937D03*
Y119063D03*
X107600Y75563D03*
Y83437D03*
X84900Y112463D03*
Y120337D03*
X94500Y130763D03*
Y138637D03*
X107800Y138937D03*
Y131063D03*
X128200Y134137D03*
Y126263D03*
G54D22*
G01X14100Y33198D02*
Y37700D01*
G01D02*
Y42202D01*
G01X7398Y37700D02*
X14100D01*
G01D02*
X20802D01*
G01X16063Y103843D02*
Y107400D01*
G01D02*
Y110957D01*
G01X13491Y107400D02*
X16063D01*
G01D02*
X18635D01*
G01X13000Y116891D02*
Y119463D01*
G01D02*
Y122035D01*
G01X9443Y119463D02*
X13000D01*
G01D02*
X16557D01*
G01X18198Y143400D02*
X22700D01*
G01X33000Y70365D02*
Y72937D01*
G01D02*
Y75509D01*
G01X29443Y72937D02*
X33000D01*
G01D02*
X36557D01*
G01X28000Y116491D02*
Y119063D01*
G01D02*
Y121635D01*
G01X24443Y119063D02*
X28000D01*
G01D02*
X31557D01*
G01X22700Y136698D02*
Y143400D01*
G01D02*
Y150102D01*
G01Y143400D02*
X27202D01*
G01X62000Y26001D02*
Y33495D01*
G01D02*
Y40989D01*
G01X58050Y33495D02*
X62000D01*
G01D02*
X65950D01*
G01X97000Y26601D02*
Y34095D01*
G01D02*
Y41589D01*
G01X93050Y34095D02*
X97000D01*
G01D02*
X100950D01*
G01X137900Y7998D02*
Y14700D01*
G01D02*
Y21402D01*
G01X133398Y14700D02*
X137900D01*
G01D02*
X142402D01*
G01X139739Y46700D02*
X143000D01*
G01X129037Y61243D02*
Y64800D01*
G01D02*
Y68357D01*
G01X126465Y64800D02*
X129037D01*
G01D02*
X131609D01*
G01X135198Y114500D02*
X141900D01*
G01X143000Y43439D02*
Y46700D01*
G01D02*
Y49961D01*
G01Y46700D02*
X146261D01*
G01X141900Y109998D02*
Y114500D01*
G01D02*
Y119002D01*
G01Y114500D02*
X148602D01*
G54D13*
X16063Y107400D03*
X43937Y11400D03*
X36063D03*
X52937Y76100D03*
X45063D03*
X23937Y107400D03*
X67837Y10700D03*
X59963D03*
X74037Y76400D03*
X66163D03*
X73637Y134300D03*
X65763D03*
X93137Y76400D03*
X85263D03*
X111663Y113600D03*
X129037Y64800D03*
X121163D03*
X119537Y113600D03*
G54D23*
G01X13700Y76563D02*
Y68700D01*
X14100Y68300D01*
Y61300D01*
G01X13700Y84437D02*
X23793D01*
X24130Y84100D01*
X27400D01*
G01X13700Y84437D02*
Y87607D01*
X13500Y87807D01*
Y95500D01*
X15400Y97400D01*
X22100D01*
X23937Y99237D01*
Y107400D01*
G01X13000Y127337D02*
X23445D01*
X23845Y126937D01*
X28000D01*
G01X29600Y22463D02*
X30585D01*
X33375Y19673D01*
Y18688D01*
X36063Y16000D01*
Y11400D01*
G01X43937D02*
X56093D01*
X56793Y10700D01*
X59963D01*
G01X30000Y45363D02*
Y33907D01*
X29600Y33507D01*
Y30337D01*
G01X45063Y76100D02*
Y80255D01*
X46163Y81355D01*
Y83963D01*
X60400Y98200D01*
X64800D01*
G01X42900Y60300D02*
X38918D01*
X38855Y60363D01*
X38685D01*
X33985Y65063D01*
X33000D01*
G01D02*
Y59407D01*
X30000Y56407D01*
Y53237D01*
G01X41800Y107443D02*
Y118330D01*
X41400Y118730D01*
Y122000D01*
G01X64800Y98200D02*
X62080Y100920D01*
Y101620D01*
X56900Y106800D01*
X54700D01*
X54057Y107443D01*
X41800D01*
G01X23937Y107400D02*
X27107D01*
X27507Y107000D01*
X33700D01*
X35400Y108700D01*
Y124800D01*
X33263Y126937D01*
X28000D01*
G01X27400Y84100D02*
X30670D01*
X30870Y84300D01*
X37800D01*
X41800Y88300D01*
Y100357D01*
G01X64200Y116700D02*
X62337Y118563D01*
X50300D01*
G01Y126437D02*
Y129607D01*
X50500Y129807D01*
Y131900D01*
X46300Y136100D01*
Y143400D01*
G01X50300Y126437D02*
X54455D01*
X54492Y126400D01*
X58200D01*
X59600Y125000D01*
Y122400D01*
G01X89100Y17143D02*
X85930D01*
X85473Y17600D01*
X78300D01*
X71400Y10700D01*
X67837D01*
G01X52937Y76100D02*
X62693D01*
X62993Y76400D01*
X66163D01*
G01X62000Y57905D02*
X91852D01*
X92452Y58505D01*
X97000D01*
G01X74037Y76400D02*
X85263D01*
G01X65500Y98200D02*
X64800D01*
G01X56000Y85200D02*
X61300Y90500D01*
X65500D01*
G01X78000Y99000D02*
X86400D01*
X86700Y99300D01*
X90500D01*
G01X73500Y94400D02*
Y94500D01*
X78000Y99000D01*
G01X84900Y120337D02*
Y124100D01*
X82000Y127000D01*
X67600D01*
X65763Y128837D01*
Y134300D01*
G01X73637D02*
X86608D01*
X86645Y134263D01*
X88745D01*
X88845Y134163D01*
X90115D01*
X93515Y130763D01*
X94500D01*
G01X100000Y17300D02*
X97400D01*
X97157Y17543D01*
X92670D01*
X92270Y17143D01*
X89100D01*
G01X99800Y10400D02*
X97200D01*
X97143Y10457D01*
X92670D01*
X92270Y10057D01*
X89100D01*
G01X107600Y75563D02*
X103445D01*
X103150Y75268D01*
X99032D01*
X97900Y76400D01*
X93137D01*
G01X121163Y64800D02*
Y68955D01*
X121000Y69118D01*
Y72000D01*
X117437Y75563D01*
X107600D01*
G01X93137Y76400D02*
Y70460D01*
X97000Y66597D01*
Y58505D01*
G01X117300Y102143D02*
X114130D01*
X114123Y102150D01*
X110850D01*
X104200Y95500D01*
X98500D01*
G01D02*
Y112700D01*
G01X90500Y91600D02*
Y86100D01*
X93163Y83437D01*
X107600D01*
G01X90500Y99300D02*
Y112300D01*
X90337Y112463D01*
X84900D01*
G01X107800Y131063D02*
X111955D01*
X112018Y131000D01*
X117400D01*
X120537Y134137D01*
X128200D01*
G01X107800Y138937D02*
X103645D01*
X103345Y138637D01*
X94500D01*
G01X111663Y113600D02*
Y117755D01*
X107018Y122400D01*
G01X120756Y42172D02*
Y23356D01*
X114300Y16900D01*
Y14700D01*
G01X117300Y95057D02*
Y85500D01*
G01X119537Y113600D02*
Y124663D01*
X121137Y126263D01*
X128200D01*
G01X143000Y37645D02*
Y27100D01*
G01D02*
X145600D01*
X145832Y26868D01*
X148968D01*
X150100Y28000D01*
Y58400D01*
X141900Y66600D01*
Y90900D01*
G54D14*
X22700Y143400D03*
X46300D03*
X114300Y14700D03*
X137900D03*
G54D15*
X42900Y60300D03*
X56000Y85200D03*
X64200Y116700D03*
X59600Y122400D03*
X100000Y17300D03*
X99800Y10400D03*
X98500Y112700D03*
X107018Y122400D03*
X117300Y85500D03*
X143000Y27100D03*
G54D16*
X41800Y107443D03*
Y100357D03*
X89100Y10057D03*
Y17143D03*
X117300Y102143D03*
Y95057D03*
G54D17*
X27400Y84100D03*
X41400Y122000D03*
X78000Y99000D03*
G54D18*
X62000Y33495D03*
Y57905D03*
X97000Y34095D03*
Y58505D03*
G54D19*
X65500Y98200D03*
Y90500D03*
X73500Y94400D03*
X90500Y99300D03*
Y91600D03*
X98500Y95500D03*
M02*
